<?xml version="1.0" ?>
<!-- Uploaded to: SVG Repo, www.svgrepo.com, Generator: SVG Repo Mixer Tools -->
<svg width="800px" height="800px" viewBox="0 0 512 512" id="Layer_1" version="1.1" xml:space="preserve" xmlns="http://www.w3.org/2000/svg" xmlns:xlink="http://www.w3.org/1999/xlink">
<style type="text/css">
	.st0{fill:#2B79C2;}
	.st1{fill:#3B4652;}
</style>
<g>
<path class="st0" d="M211,303.7c0-0.3,0-0.7,0-1c-0.5-12.9-11.1-23.1-24.1-23.1c-0.3,0-0.6,0-0.9,0h-0.1c-0.3,0-0.6,0-1,0.1   c-12.1,0.9-21.7,10.8-22.2,23.1c0,0.3,0,0.7,0,1c0,13.3,10.8,24.2,24.2,24.2C200.2,327.9,211,317.1,211,303.7z"/>
<path class="st0" d="M259.5,327.9c13.4,0,24.2-10.8,24.2-24.2c0-0.3,0-0.7,0-1c-0.5-12.9-11.1-23.1-24.1-23.1c-0.3,0-0.7,0-1,0   c-12.6,0.5-22.6,10.6-23.2,23.1c0,0.3,0,0.7,0,1C235.4,317.1,246.2,327.9,259.5,327.9z"/>
<path class="st1" d="M134.9,222.4h-13.4V209c0-3.9-3.1-7-7-7s-7,3.1-7,7v13.4H94.1c-3.9,0-7,3.1-7,7s3.1,7,7,7h13.4v13.4   c0,3.9,3.1,7,7,7s7-3.1,7-7v-13.4h13.4c3.9,0,7-3.1,7-7S138.8,222.4,134.9,222.4z"/>
<path class="st1" d="M311.5,240.4h13.4v13.4c0,3.9,3.1,7,7,7s7-3.1,7-7v-13.4h13.4c3.9,0,7-3.1,7-7s-3.1-7-7-7h-13.4v-13.4   c0-3.9-3.1-7-7-7s-7,3.1-7,7v13.4h-13.4c-3.9,0-7,3.1-7,7S307.6,240.4,311.5,240.4z"/>
<path class="st1" d="M148.7,302.1c0.8-19.2,15.8-34.8,35-36.4c0.6,0,1.2-0.1,1.7-0.1l0.3,0c0.4,0,0.8,0,1.1,0   c17,0,31.5,11.1,36.4,26.6c4.8-14.9,18.6-25.9,34.8-26.6h0.1c0.5,0,1,0,1.4,0c20.5,0,37.3,16.1,38.1,36.6v0.2c0,0.5,0,1,0,1.4   c0,2.8-0.3,5.6-0.9,8.2v39.8c0,33.7,27.3,61.1,61.1,61.1h0c33.7,0,61.1-27.4,61.1-61.1V243.9c0-53.9-43.7-97.6-97.6-97.6H125   c-53.9,0-97.6,43.7-97.6,97.6v107.8c0,33.7,27.3,61.1,61,61.1h0c33.7,0,61.1-27.4,61.1-61.1v-39.8c-0.6-2.6-0.9-5.4-0.9-8.2   c0-0.5,0-0.9,0-1.4L148.7,302.1z M331.9,186.6c25.8,0,46.8,20.9,46.8,46.8s-20.9,46.8-46.8,46.8s-46.8-20.9-46.8-46.8   S306,186.6,331.9,186.6z M114.5,276.2c-25.8,0-46.8-20.9-46.8-46.8c0-25.8,20.9-46.8,46.8-46.8c25.8,0,46.8,20.9,46.8,46.8   C161.3,255.3,140.3,276.2,114.5,276.2z"/>
<path class="st0" d="M457.1,18H240.1c-15.2,0-27.5,12.3-27.5,27.5v47.9h-40c-8.3,0-15.1,6.8-15.1,15.1v23.8h124.2v-23.8   c0-8.3-6.8-15.1-15.1-15.1h-40V45.5c0-7.4,6.1-13.5,13.5-13.5h216.9c7.4,0,13.5,6.1,13.5,13.5v421c0,7.4-6.1,13.5-13.5,13.5H243.7   c-7.4,0-13.5-6.1-13.5-13.5v-10.6c0-0.3,0-0.6-0.1-0.9c12-3.1,20.9-14,20.9-27v-44.3h-55.8V428c0,13,8.9,23.9,20.9,27   c0,0.3-0.1,0.6-0.1,0.9v10.6c0,15.2,12.3,27.5,27.5,27.5h213.4c15.2,0,27.5-12.3,27.5-27.5v-421C484.6,30.3,472.2,18,457.1,18z"/>
<rect class="st1" height="20.7" width="34.7" x="205.9" y="349.1"/>
</g>
</svg>